<mxfile host="app.diagrams.net" modified="2023-12-12T15:42:49.258Z" agent="Mozilla/5.0 (Windows NT 10.0; Win64; x64) AppleWebKit/537.36 (KHTML, like Gecko) Chrome/120.0.0.0 Safari/537.36 Edg/120.0.0.0" etag="H6qxtmivgWjWbc3G1cq-" version="22.1.7" type="github">
  <diagram name="PÃ¡gina-1" id="uP4vXigWwdHrko6M8Cvu">
    <mxGraphModel dx="2206" dy="3126" grid="1" gridSize="10" guides="1" tooltips="1" connect="1" arrows="1" fold="1" page="1" pageScale="1" pageWidth="827" pageHeight="1169" math="0" shadow="0">
      <root>
        <mxCell id="0" />
        <mxCell id="1" parent="0" />
        <mxCell id="CEjSGQ_9NDGecTtwq8PR-99" value="cvv" style="rounded=0;whiteSpace=wrap;html=1;" vertex="1" parent="1">
          <mxGeometry x="-130" y="-1280" width="1170" height="950" as="geometry" />
        </mxCell>
        <mxCell id="CEjSGQ_9NDGecTtwq8PR-106" style="edgeStyle=orthogonalEdgeStyle;rounded=0;orthogonalLoop=1;jettySize=auto;html=1;exitX=0;exitY=1;exitDx=0;exitDy=0;" edge="1" parent="1" source="CEjSGQ_9NDGecTtwq8PR-96">
          <mxGeometry relative="1" as="geometry">
            <mxPoint x="-160" y="860" as="targetPoint" />
          </mxGeometry>
        </mxCell>
        <mxCell id="CEjSGQ_9NDGecTtwq8PR-96" value="cvv" style="rounded=0;whiteSpace=wrap;html=1;" vertex="1" parent="1">
          <mxGeometry x="-290" y="-160" width="1320" height="1010" as="geometry" />
        </mxCell>
        <mxCell id="CEjSGQ_9NDGecTtwq8PR-2" value="service_type" style="swimlane;fontStyle=0;childLayout=stackLayout;horizontal=1;startSize=30;horizontalStack=0;resizeParent=1;resizeParentMax=0;resizeLast=0;collapsible=1;marginBottom=0;whiteSpace=wrap;html=1;" vertex="1" parent="1">
          <mxGeometry x="20" y="50" width="140" height="120" as="geometry" />
        </mxCell>
        <mxCell id="CEjSGQ_9NDGecTtwq8PR-3" value="id" style="text;strokeColor=none;fillColor=none;align=left;verticalAlign=middle;spacingLeft=4;spacingRight=4;overflow=hidden;points=[[0,0.5],[1,0.5]];portConstraint=eastwest;rotatable=0;whiteSpace=wrap;html=1;" vertex="1" parent="CEjSGQ_9NDGecTtwq8PR-2">
          <mxGeometry y="30" width="140" height="30" as="geometry" />
        </mxCell>
        <mxCell id="CEjSGQ_9NDGecTtwq8PR-4" value="name" style="text;strokeColor=none;fillColor=none;align=left;verticalAlign=middle;spacingLeft=4;spacingRight=4;overflow=hidden;points=[[0,0.5],[1,0.5]];portConstraint=eastwest;rotatable=0;whiteSpace=wrap;html=1;" vertex="1" parent="CEjSGQ_9NDGecTtwq8PR-2">
          <mxGeometry y="60" width="140" height="30" as="geometry" />
        </mxCell>
        <mxCell id="CEjSGQ_9NDGecTtwq8PR-5" value="descripcion&amp;nbsp;" style="text;strokeColor=none;fillColor=none;align=left;verticalAlign=middle;spacingLeft=4;spacingRight=4;overflow=hidden;points=[[0,0.5],[1,0.5]];portConstraint=eastwest;rotatable=0;whiteSpace=wrap;html=1;" vertex="1" parent="CEjSGQ_9NDGecTtwq8PR-2">
          <mxGeometry y="90" width="140" height="30" as="geometry" />
        </mxCell>
        <mxCell id="CEjSGQ_9NDGecTtwq8PR-29" value="" style="edgeStyle=orthogonalEdgeStyle;rounded=0;orthogonalLoop=1;jettySize=auto;html=1;" edge="1" parent="1" source="CEjSGQ_9NDGecTtwq8PR-6" target="CEjSGQ_9NDGecTtwq8PR-23">
          <mxGeometry relative="1" as="geometry" />
        </mxCell>
        <mxCell id="CEjSGQ_9NDGecTtwq8PR-6" value="empresa_user" style="swimlane;fontStyle=0;childLayout=stackLayout;horizontal=1;startSize=30;horizontalStack=0;resizeParent=1;resizeParentMax=0;resizeLast=0;collapsible=1;marginBottom=0;whiteSpace=wrap;html=1;" vertex="1" parent="1">
          <mxGeometry x="650" y="100" width="140" height="110" as="geometry" />
        </mxCell>
        <mxCell id="CEjSGQ_9NDGecTtwq8PR-7" value="id" style="text;strokeColor=none;fillColor=none;align=left;verticalAlign=middle;spacingLeft=4;spacingRight=4;overflow=hidden;points=[[0,0.5],[1,0.5]];portConstraint=eastwest;rotatable=0;whiteSpace=wrap;html=1;" vertex="1" parent="CEjSGQ_9NDGecTtwq8PR-6">
          <mxGeometry y="30" width="140" height="30" as="geometry" />
        </mxCell>
        <mxCell id="CEjSGQ_9NDGecTtwq8PR-8" value="users_id" style="text;strokeColor=none;fillColor=none;align=left;verticalAlign=middle;spacingLeft=4;spacingRight=4;overflow=hidden;points=[[0,0.5],[1,0.5]];portConstraint=eastwest;rotatable=0;whiteSpace=wrap;html=1;" vertex="1" parent="CEjSGQ_9NDGecTtwq8PR-6">
          <mxGeometry y="60" width="140" height="30" as="geometry" />
        </mxCell>
        <mxCell id="CEjSGQ_9NDGecTtwq8PR-9" value="empresa_id" style="text;strokeColor=none;fillColor=none;align=left;verticalAlign=middle;spacingLeft=4;spacingRight=4;overflow=hidden;points=[[0,0.5],[1,0.5]];portConstraint=eastwest;rotatable=0;whiteSpace=wrap;html=1;" vertex="1" parent="CEjSGQ_9NDGecTtwq8PR-6">
          <mxGeometry y="90" width="140" height="20" as="geometry" />
        </mxCell>
        <mxCell id="CEjSGQ_9NDGecTtwq8PR-14" value="Empresa" style="swimlane;fontStyle=0;childLayout=stackLayout;horizontal=1;startSize=30;horizontalStack=0;resizeParent=1;resizeParentMax=0;resizeLast=0;collapsible=1;marginBottom=0;whiteSpace=wrap;html=1;" vertex="1" parent="1">
          <mxGeometry x="360" y="20" width="140" height="120" as="geometry" />
        </mxCell>
        <mxCell id="CEjSGQ_9NDGecTtwq8PR-15" value="id" style="text;strokeColor=none;fillColor=none;align=left;verticalAlign=middle;spacingLeft=4;spacingRight=4;overflow=hidden;points=[[0,0.5],[1,0.5]];portConstraint=eastwest;rotatable=0;whiteSpace=wrap;html=1;" vertex="1" parent="CEjSGQ_9NDGecTtwq8PR-14">
          <mxGeometry y="30" width="140" height="30" as="geometry" />
        </mxCell>
        <mxCell id="CEjSGQ_9NDGecTtwq8PR-49" value="service_type_id" style="text;strokeColor=none;fillColor=none;align=left;verticalAlign=middle;spacingLeft=4;spacingRight=4;overflow=hidden;points=[[0,0.5],[1,0.5]];portConstraint=eastwest;rotatable=0;whiteSpace=wrap;html=1;" vertex="1" parent="CEjSGQ_9NDGecTtwq8PR-14">
          <mxGeometry y="60" width="140" height="30" as="geometry" />
        </mxCell>
        <mxCell id="CEjSGQ_9NDGecTtwq8PR-50" value="name" style="text;strokeColor=none;fillColor=none;align=left;verticalAlign=middle;spacingLeft=4;spacingRight=4;overflow=hidden;points=[[0,0.5],[1,0.5]];portConstraint=eastwest;rotatable=0;whiteSpace=wrap;html=1;" vertex="1" parent="CEjSGQ_9NDGecTtwq8PR-14">
          <mxGeometry y="90" width="140" height="30" as="geometry" />
        </mxCell>
        <mxCell id="CEjSGQ_9NDGecTtwq8PR-23" value="Users&lt;br&gt;" style="swimlane;fontStyle=0;childLayout=stackLayout;horizontal=1;startSize=30;horizontalStack=0;resizeParent=1;resizeParentMax=0;resizeLast=0;collapsible=1;marginBottom=0;whiteSpace=wrap;html=1;" vertex="1" parent="1">
          <mxGeometry x="790" y="260" width="140" height="60" as="geometry" />
        </mxCell>
        <mxCell id="CEjSGQ_9NDGecTtwq8PR-24" value="roles_id" style="text;strokeColor=none;fillColor=none;align=left;verticalAlign=middle;spacingLeft=4;spacingRight=4;overflow=hidden;points=[[0,0.5],[1,0.5]];portConstraint=eastwest;rotatable=0;whiteSpace=wrap;html=1;" vertex="1" parent="CEjSGQ_9NDGecTtwq8PR-23">
          <mxGeometry y="30" width="140" height="30" as="geometry" />
        </mxCell>
        <mxCell id="CEjSGQ_9NDGecTtwq8PR-37" value="tipo_ticket" style="swimlane;fontStyle=0;childLayout=stackLayout;horizontal=1;startSize=30;horizontalStack=0;resizeParent=1;resizeParentMax=0;resizeLast=0;collapsible=1;marginBottom=0;whiteSpace=wrap;html=1;" vertex="1" parent="1">
          <mxGeometry x="40" y="320" width="140" height="240" as="geometry" />
        </mxCell>
        <mxCell id="CEjSGQ_9NDGecTtwq8PR-124" value="id" style="text;strokeColor=none;fillColor=none;align=left;verticalAlign=middle;spacingLeft=4;spacingRight=4;overflow=hidden;points=[[0,0.5],[1,0.5]];portConstraint=eastwest;rotatable=0;whiteSpace=wrap;html=1;" vertex="1" parent="CEjSGQ_9NDGecTtwq8PR-37">
          <mxGeometry y="30" width="140" height="30" as="geometry" />
        </mxCell>
        <mxCell id="CEjSGQ_9NDGecTtwq8PR-42" value="name" style="text;strokeColor=none;fillColor=none;align=left;verticalAlign=middle;spacingLeft=4;spacingRight=4;overflow=hidden;points=[[0,0.5],[1,0.5]];portConstraint=eastwest;rotatable=0;whiteSpace=wrap;html=1;" vertex="1" parent="CEjSGQ_9NDGecTtwq8PR-37">
          <mxGeometry y="60" width="140" height="30" as="geometry" />
        </mxCell>
        <mxCell id="CEjSGQ_9NDGecTtwq8PR-43" value="descripcion" style="text;strokeColor=none;fillColor=none;align=left;verticalAlign=middle;spacingLeft=4;spacingRight=4;overflow=hidden;points=[[0,0.5],[1,0.5]];portConstraint=eastwest;rotatable=0;whiteSpace=wrap;html=1;" vertex="1" parent="CEjSGQ_9NDGecTtwq8PR-37">
          <mxGeometry y="90" width="140" height="30" as="geometry" />
        </mxCell>
        <mxCell id="CEjSGQ_9NDGecTtwq8PR-45" value="service_type_id" style="text;strokeColor=none;fillColor=none;align=left;verticalAlign=middle;spacingLeft=4;spacingRight=4;overflow=hidden;points=[[0,0.5],[1,0.5]];portConstraint=eastwest;rotatable=0;whiteSpace=wrap;html=1;" vertex="1" parent="CEjSGQ_9NDGecTtwq8PR-37">
          <mxGeometry y="120" width="140" height="30" as="geometry" />
        </mxCell>
        <mxCell id="CEjSGQ_9NDGecTtwq8PR-66" value="tiempo_de atenc" style="text;strokeColor=none;fillColor=none;align=left;verticalAlign=middle;spacingLeft=4;spacingRight=4;overflow=hidden;points=[[0,0.5],[1,0.5]];portConstraint=eastwest;rotatable=0;whiteSpace=wrap;html=1;" vertex="1" parent="CEjSGQ_9NDGecTtwq8PR-37">
          <mxGeometry y="150" width="140" height="30" as="geometry" />
        </mxCell>
        <mxCell id="CEjSGQ_9NDGecTtwq8PR-67" value="prioridad_id" style="text;strokeColor=none;fillColor=none;align=left;verticalAlign=middle;spacingLeft=4;spacingRight=4;overflow=hidden;points=[[0,0.5],[1,0.5]];portConstraint=eastwest;rotatable=0;whiteSpace=wrap;html=1;" vertex="1" parent="CEjSGQ_9NDGecTtwq8PR-37">
          <mxGeometry y="180" width="140" height="30" as="geometry" />
        </mxCell>
        <mxCell id="CEjSGQ_9NDGecTtwq8PR-73" value="empresa_id" style="text;strokeColor=none;fillColor=none;align=left;verticalAlign=middle;spacingLeft=4;spacingRight=4;overflow=hidden;points=[[0,0.5],[1,0.5]];portConstraint=eastwest;rotatable=0;whiteSpace=wrap;html=1;" vertex="1" parent="CEjSGQ_9NDGecTtwq8PR-37">
          <mxGeometry y="210" width="140" height="30" as="geometry" />
        </mxCell>
        <mxCell id="CEjSGQ_9NDGecTtwq8PR-51" value="" style="edgeStyle=entityRelationEdgeStyle;fontSize=12;html=1;endArrow=ERoneToMany;startArrow=ERzeroToOne;rounded=0;exitX=1;exitY=0.5;exitDx=0;exitDy=0;entryX=0;entryY=0.5;entryDx=0;entryDy=0;" edge="1" parent="1" source="CEjSGQ_9NDGecTtwq8PR-3" target="CEjSGQ_9NDGecTtwq8PR-49">
          <mxGeometry width="100" height="100" relative="1" as="geometry">
            <mxPoint x="320" y="275" as="sourcePoint" />
            <mxPoint x="400" y="230" as="targetPoint" />
            <Array as="points">
              <mxPoint x="200" y="140" />
              <mxPoint x="170" y="100" />
            </Array>
          </mxGeometry>
        </mxCell>
        <mxCell id="CEjSGQ_9NDGecTtwq8PR-57" value="" style="edgeStyle=entityRelationEdgeStyle;fontSize=12;html=1;endArrow=ERoneToMany;rounded=0;exitX=1;exitY=0.5;exitDx=0;exitDy=0;entryX=0;entryY=0.5;entryDx=0;entryDy=0;" edge="1" parent="1" source="CEjSGQ_9NDGecTtwq8PR-15" target="CEjSGQ_9NDGecTtwq8PR-9">
          <mxGeometry width="100" height="100" relative="1" as="geometry">
            <mxPoint x="550" y="360" as="sourcePoint" />
            <mxPoint x="650" y="260" as="targetPoint" />
            <Array as="points">
              <mxPoint x="410" y="370" />
              <mxPoint x="640" y="300" />
              <mxPoint x="590" y="330" />
            </Array>
          </mxGeometry>
        </mxCell>
        <mxCell id="CEjSGQ_9NDGecTtwq8PR-58" value="Roles" style="swimlane;fontStyle=0;childLayout=stackLayout;horizontal=1;startSize=26;horizontalStack=0;resizeParent=1;resizeParentMax=0;resizeLast=0;collapsible=1;marginBottom=0;align=center;fontSize=14;" vertex="1" parent="1">
          <mxGeometry x="680" y="427" width="110" height="56" as="geometry" />
        </mxCell>
        <mxCell id="CEjSGQ_9NDGecTtwq8PR-59" value="id" style="text;strokeColor=none;fillColor=none;spacingLeft=4;spacingRight=4;overflow=hidden;rotatable=0;points=[[0,0.5],[1,0.5]];portConstraint=eastwest;fontSize=12;whiteSpace=wrap;html=1;" vertex="1" parent="CEjSGQ_9NDGecTtwq8PR-58">
          <mxGeometry y="26" width="110" height="30" as="geometry" />
        </mxCell>
        <mxCell id="CEjSGQ_9NDGecTtwq8PR-62" value="" style="edgeStyle=entityRelationEdgeStyle;fontSize=12;html=1;endArrow=ERzeroToMany;endFill=1;rounded=0;exitX=1;exitY=0.5;exitDx=0;exitDy=0;" edge="1" parent="1" source="CEjSGQ_9NDGecTtwq8PR-59" target="CEjSGQ_9NDGecTtwq8PR-24">
          <mxGeometry width="100" height="100" relative="1" as="geometry">
            <mxPoint x="610" y="450.99" as="sourcePoint" />
            <mxPoint x="757" y="300.0000000000002" as="targetPoint" />
            <Array as="points">
              <mxPoint x="540" y="335.99" />
              <mxPoint x="620" y="275.99" />
              <mxPoint x="620" y="325.99" />
            </Array>
          </mxGeometry>
        </mxCell>
        <mxCell id="CEjSGQ_9NDGecTtwq8PR-68" value="" style="edgeStyle=entityRelationEdgeStyle;fontSize=12;html=1;endArrow=ERzeroToMany;endFill=1;rounded=0;exitX=1;exitY=0.5;exitDx=0;exitDy=0;" edge="1" parent="1" source="CEjSGQ_9NDGecTtwq8PR-3" target="CEjSGQ_9NDGecTtwq8PR-45">
          <mxGeometry width="100" height="100" relative="1" as="geometry">
            <mxPoint x="20" y="90" as="sourcePoint" />
            <mxPoint x="100" y="570" as="targetPoint" />
            <Array as="points">
              <mxPoint x="170" y="515" />
            </Array>
          </mxGeometry>
        </mxCell>
        <mxCell id="CEjSGQ_9NDGecTtwq8PR-75" value="" style="edgeStyle=orthogonalEdgeStyle;rounded=0;orthogonalLoop=1;jettySize=auto;html=1;" edge="1" parent="1" source="CEjSGQ_9NDGecTtwq8PR-69" target="CEjSGQ_9NDGecTtwq8PR-73">
          <mxGeometry relative="1" as="geometry" />
        </mxCell>
        <mxCell id="CEjSGQ_9NDGecTtwq8PR-69" value="prioridad" style="swimlane;fontStyle=0;childLayout=stackLayout;horizontal=1;startSize=26;horizontalStack=0;resizeParent=1;resizeParentMax=0;resizeLast=0;collapsible=1;marginBottom=0;align=center;fontSize=14;" vertex="1" parent="1">
          <mxGeometry x="-150" y="680" width="160" height="146" as="geometry" />
        </mxCell>
        <mxCell id="CEjSGQ_9NDGecTtwq8PR-70" value="id" style="text;strokeColor=none;fillColor=none;spacingLeft=4;spacingRight=4;overflow=hidden;rotatable=0;points=[[0,0.5],[1,0.5]];portConstraint=eastwest;fontSize=12;whiteSpace=wrap;html=1;" vertex="1" parent="CEjSGQ_9NDGecTtwq8PR-69">
          <mxGeometry y="26" width="160" height="30" as="geometry" />
        </mxCell>
        <mxCell id="CEjSGQ_9NDGecTtwq8PR-71" value="name" style="text;strokeColor=none;fillColor=none;spacingLeft=4;spacingRight=4;overflow=hidden;rotatable=0;points=[[0,0.5],[1,0.5]];portConstraint=eastwest;fontSize=12;whiteSpace=wrap;html=1;" vertex="1" parent="CEjSGQ_9NDGecTtwq8PR-69">
          <mxGeometry y="56" width="160" height="30" as="geometry" />
        </mxCell>
        <mxCell id="CEjSGQ_9NDGecTtwq8PR-72" value="tiempo de atencion" style="text;strokeColor=none;fillColor=none;spacingLeft=4;spacingRight=4;overflow=hidden;rotatable=0;points=[[0,0.5],[1,0.5]];portConstraint=eastwest;fontSize=12;whiteSpace=wrap;html=1;" vertex="1" parent="CEjSGQ_9NDGecTtwq8PR-69">
          <mxGeometry y="86" width="160" height="30" as="geometry" />
        </mxCell>
        <mxCell id="CEjSGQ_9NDGecTtwq8PR-74" value="status&lt;br&gt;" style="text;strokeColor=none;fillColor=none;spacingLeft=4;spacingRight=4;overflow=hidden;rotatable=0;points=[[0,0.5],[1,0.5]];portConstraint=eastwest;fontSize=12;whiteSpace=wrap;html=1;" vertex="1" parent="CEjSGQ_9NDGecTtwq8PR-69">
          <mxGeometry y="116" width="160" height="30" as="geometry" />
        </mxCell>
        <mxCell id="CEjSGQ_9NDGecTtwq8PR-78" value="" style="edgeStyle=orthogonalEdgeStyle;rounded=0;orthogonalLoop=1;jettySize=auto;html=1;entryX=0.5;entryY=0;entryDx=0;entryDy=0;" edge="1" parent="1" source="CEjSGQ_9NDGecTtwq8PR-77" target="CEjSGQ_9NDGecTtwq8PR-2">
          <mxGeometry relative="1" as="geometry">
            <Array as="points">
              <mxPoint x="85" y="50" />
            </Array>
          </mxGeometry>
        </mxCell>
        <mxCell id="CEjSGQ_9NDGecTtwq8PR-77" value="esta tabla es para crear el tipo de de proveedor de servicio&amp;nbsp;" style="shape=note;whiteSpace=wrap;html=1;backgroundOutline=1;darkOpacity=0.05;" vertex="1" parent="1">
          <mxGeometry x="20" y="-130" width="110" height="100" as="geometry" />
        </mxCell>
        <mxCell id="CEjSGQ_9NDGecTtwq8PR-81" value="" style="edgeStyle=orthogonalEdgeStyle;rounded=0;orthogonalLoop=1;jettySize=auto;html=1;entryX=0.379;entryY=1.033;entryDx=0;entryDy=0;entryPerimeter=0;" edge="1" parent="1" source="CEjSGQ_9NDGecTtwq8PR-79" target="CEjSGQ_9NDGecTtwq8PR-50">
          <mxGeometry relative="1" as="geometry">
            <mxPoint x="365" y="200" as="targetPoint" />
          </mxGeometry>
        </mxCell>
        <mxCell id="CEjSGQ_9NDGecTtwq8PR-79" value="Esta tabla contiene las empresas, para la parte de los proveedores creamos una empresa genÃ©rica que diga Proveedores&lt;br&gt;&lt;br&gt;Proveedores : tendrÃ¡ todos los usuarios que tengan el rol proveedor" style="shape=note;whiteSpace=wrap;html=1;backgroundOutline=1;darkOpacity=0.05;" vertex="1" parent="1">
          <mxGeometry x="279" y="200" width="270" height="120" as="geometry" />
        </mxCell>
        <mxCell id="CEjSGQ_9NDGecTtwq8PR-82" value="roles_tipoticket" style="swimlane;fontStyle=0;childLayout=stackLayout;horizontal=1;startSize=30;horizontalStack=0;resizeParent=1;resizeParentMax=0;resizeLast=0;collapsible=1;marginBottom=0;whiteSpace=wrap;html=1;" vertex="1" parent="1">
          <mxGeometry x="460" y="465" width="140" height="120" as="geometry" />
        </mxCell>
        <mxCell id="CEjSGQ_9NDGecTtwq8PR-83" value="id" style="text;strokeColor=none;fillColor=none;align=left;verticalAlign=middle;spacingLeft=4;spacingRight=4;overflow=hidden;points=[[0,0.5],[1,0.5]];portConstraint=eastwest;rotatable=0;whiteSpace=wrap;html=1;" vertex="1" parent="CEjSGQ_9NDGecTtwq8PR-82">
          <mxGeometry y="30" width="140" height="30" as="geometry" />
        </mxCell>
        <mxCell id="CEjSGQ_9NDGecTtwq8PR-84" value="tipo_ticket_id" style="text;strokeColor=none;fillColor=none;align=left;verticalAlign=middle;spacingLeft=4;spacingRight=4;overflow=hidden;points=[[0,0.5],[1,0.5]];portConstraint=eastwest;rotatable=0;whiteSpace=wrap;html=1;" vertex="1" parent="CEjSGQ_9NDGecTtwq8PR-82">
          <mxGeometry y="60" width="140" height="30" as="geometry" />
        </mxCell>
        <mxCell id="CEjSGQ_9NDGecTtwq8PR-85" value="roles_id" style="text;strokeColor=none;fillColor=none;align=left;verticalAlign=middle;spacingLeft=4;spacingRight=4;overflow=hidden;points=[[0,0.5],[1,0.5]];portConstraint=eastwest;rotatable=0;whiteSpace=wrap;html=1;" vertex="1" parent="CEjSGQ_9NDGecTtwq8PR-82">
          <mxGeometry y="90" width="140" height="30" as="geometry" />
        </mxCell>
        <mxCell id="CEjSGQ_9NDGecTtwq8PR-87" value="" style="edgeStyle=orthogonalEdgeStyle;rounded=0;orthogonalLoop=1;jettySize=auto;html=1;entryX=0.514;entryY=1.033;entryDx=0;entryDy=0;entryPerimeter=0;" edge="1" parent="1" source="CEjSGQ_9NDGecTtwq8PR-86" target="CEjSGQ_9NDGecTtwq8PR-85">
          <mxGeometry relative="1" as="geometry" />
        </mxCell>
        <mxCell id="CEjSGQ_9NDGecTtwq8PR-86" value="&lt;br&gt;Esta tabla&amp;nbsp; asignamos que rol puede reportar cada tipo de ticket ejemplo: supplier -&amp;gt; error de recolecciones&amp;nbsp;&amp;nbsp;" style="shape=note;whiteSpace=wrap;html=1;backgroundOutline=1;darkOpacity=0.05;" vertex="1" parent="1">
          <mxGeometry x="400" y="630" width="270" height="120" as="geometry" />
        </mxCell>
        <mxCell id="CEjSGQ_9NDGecTtwq8PR-90" value="" style="edgeStyle=entityRelationEdgeStyle;fontSize=12;html=1;endArrow=ERoneToMany;rounded=0;exitX=1;exitY=0.5;exitDx=0;exitDy=0;" edge="1" parent="1" target="CEjSGQ_9NDGecTtwq8PR-84">
          <mxGeometry width="100" height="100" relative="1" as="geometry">
            <mxPoint x="180" y="395" as="sourcePoint" />
            <mxPoint x="460" y="360" as="targetPoint" />
          </mxGeometry>
        </mxCell>
        <mxCell id="CEjSGQ_9NDGecTtwq8PR-91" value="" style="edgeStyle=entityRelationEdgeStyle;fontSize=12;html=1;endArrow=ERoneToMany;rounded=0;exitX=0;exitY=0.5;exitDx=0;exitDy=0;entryX=1;entryY=0.5;entryDx=0;entryDy=0;" edge="1" parent="1" source="CEjSGQ_9NDGecTtwq8PR-59" target="CEjSGQ_9NDGecTtwq8PR-85">
          <mxGeometry width="100" height="100" relative="1" as="geometry">
            <mxPoint x="360" y="460" as="sourcePoint" />
            <mxPoint x="460" y="360" as="targetPoint" />
            <Array as="points">
              <mxPoint x="570" y="380" />
            </Array>
          </mxGeometry>
        </mxCell>
        <mxCell id="CEjSGQ_9NDGecTtwq8PR-92" value="ticket" style="swimlane;fontStyle=0;childLayout=stackLayout;horizontal=1;startSize=26;horizontalStack=0;resizeParent=1;resizeParentMax=0;resizeLast=0;collapsible=1;marginBottom=0;align=center;fontSize=14;" vertex="1" parent="1">
          <mxGeometry x="-100" y="-550" width="290" height="176" as="geometry" />
        </mxCell>
        <mxCell id="CEjSGQ_9NDGecTtwq8PR-93" value="tipo_ticket_id" style="text;strokeColor=none;fillColor=none;spacingLeft=4;spacingRight=4;overflow=hidden;rotatable=0;points=[[0,0.5],[1,0.5]];portConstraint=eastwest;fontSize=12;whiteSpace=wrap;html=1;" vertex="1" parent="CEjSGQ_9NDGecTtwq8PR-92">
          <mxGeometry y="26" width="290" height="30" as="geometry" />
        </mxCell>
        <mxCell id="CEjSGQ_9NDGecTtwq8PR-94" value="objeto&amp;nbsp; &amp;nbsp;---&amp;nbsp; puede ser de garantia , ordenes etc" style="text;strokeColor=none;fillColor=none;spacingLeft=4;spacingRight=4;overflow=hidden;rotatable=0;points=[[0,0.5],[1,0.5]];portConstraint=eastwest;fontSize=12;whiteSpace=wrap;html=1;" vertex="1" parent="CEjSGQ_9NDGecTtwq8PR-92">
          <mxGeometry y="56" width="290" height="30" as="geometry" />
        </mxCell>
        <mxCell id="CEjSGQ_9NDGecTtwq8PR-131" value="users_id" style="text;strokeColor=none;fillColor=none;spacingLeft=4;spacingRight=4;overflow=hidden;rotatable=0;points=[[0,0.5],[1,0.5]];portConstraint=eastwest;fontSize=12;whiteSpace=wrap;html=1;" vertex="1" parent="CEjSGQ_9NDGecTtwq8PR-92">
          <mxGeometry y="86" width="290" height="30" as="geometry" />
        </mxCell>
        <mxCell id="CEjSGQ_9NDGecTtwq8PR-132" value="fecha_creacion&lt;br&gt;" style="text;strokeColor=none;fillColor=none;spacingLeft=4;spacingRight=4;overflow=hidden;rotatable=0;points=[[0,0.5],[1,0.5]];portConstraint=eastwest;fontSize=12;whiteSpace=wrap;html=1;" vertex="1" parent="CEjSGQ_9NDGecTtwq8PR-92">
          <mxGeometry y="116" width="290" height="30" as="geometry" />
        </mxCell>
        <mxCell id="CEjSGQ_9NDGecTtwq8PR-133" value="campos JSONB{ .... }" style="text;strokeColor=none;fillColor=none;spacingLeft=4;spacingRight=4;overflow=hidden;rotatable=0;points=[[0,0.5],[1,0.5]];portConstraint=eastwest;fontSize=12;whiteSpace=wrap;html=1;" vertex="1" parent="CEjSGQ_9NDGecTtwq8PR-92">
          <mxGeometry y="146" width="290" height="30" as="geometry" />
        </mxCell>
        <mxCell id="CEjSGQ_9NDGecTtwq8PR-98" value="" style="image;aspect=fixed;html=1;points=[];align=center;fontSize=12;image=img/lib/azure2/databases/Azure_Database_PostgreSQL_Server.svg;" vertex="1" parent="1">
          <mxGeometry x="-110" y="-194" width="48" height="64" as="geometry" />
        </mxCell>
        <mxCell id="CEjSGQ_9NDGecTtwq8PR-100" value="MONGO DB" style="text;html=1;align=center;verticalAlign=middle;resizable=0;points=[];autosize=1;strokeColor=none;fillColor=none;" vertex="1" parent="1">
          <mxGeometry x="-130" y="-1300" width="90" height="30" as="geometry" />
        </mxCell>
        <mxCell id="CEjSGQ_9NDGecTtwq8PR-101" value="Formulario" style="swimlane;fontStyle=0;childLayout=stackLayout;horizontal=1;startSize=30;horizontalStack=0;resizeParent=1;resizeParentMax=0;resizeLast=0;collapsible=1;marginBottom=0;whiteSpace=wrap;html=1;" vertex="1" parent="1">
          <mxGeometry x="-230" y="240" width="140" height="150" as="geometry" />
        </mxCell>
        <mxCell id="CEjSGQ_9NDGecTtwq8PR-102" value="id" style="text;strokeColor=none;fillColor=none;align=left;verticalAlign=middle;spacingLeft=4;spacingRight=4;overflow=hidden;points=[[0,0.5],[1,0.5]];portConstraint=eastwest;rotatable=0;whiteSpace=wrap;html=1;" vertex="1" parent="CEjSGQ_9NDGecTtwq8PR-101">
          <mxGeometry y="30" width="140" height="30" as="geometry" />
        </mxCell>
        <mxCell id="CEjSGQ_9NDGecTtwq8PR-103" value="tipo_ticket_id" style="text;strokeColor=none;fillColor=none;align=left;verticalAlign=middle;spacingLeft=4;spacingRight=4;overflow=hidden;points=[[0,0.5],[1,0.5]];portConstraint=eastwest;rotatable=0;whiteSpace=wrap;html=1;" vertex="1" parent="CEjSGQ_9NDGecTtwq8PR-101">
          <mxGeometry y="60" width="140" height="30" as="geometry" />
        </mxCell>
        <mxCell id="CEjSGQ_9NDGecTtwq8PR-104" value="campos_formulario_id" style="text;strokeColor=none;fillColor=none;align=left;verticalAlign=middle;spacingLeft=4;spacingRight=4;overflow=hidden;points=[[0,0.5],[1,0.5]];portConstraint=eastwest;rotatable=0;whiteSpace=wrap;html=1;" vertex="1" parent="CEjSGQ_9NDGecTtwq8PR-101">
          <mxGeometry y="90" width="140" height="30" as="geometry" />
        </mxCell>
        <mxCell id="CEjSGQ_9NDGecTtwq8PR-119" value="requiere (si el campo es requerido)" style="text;strokeColor=none;fillColor=none;align=left;verticalAlign=middle;spacingLeft=4;spacingRight=4;overflow=hidden;points=[[0,0.5],[1,0.5]];portConstraint=eastwest;rotatable=0;whiteSpace=wrap;html=1;" vertex="1" parent="CEjSGQ_9NDGecTtwq8PR-101">
          <mxGeometry y="120" width="140" height="30" as="geometry" />
        </mxCell>
        <mxCell id="CEjSGQ_9NDGecTtwq8PR-107" value="tipo_ticket_users" style="swimlane;fontStyle=0;childLayout=stackLayout;horizontal=1;startSize=30;horizontalStack=0;resizeParent=1;resizeParentMax=0;resizeLast=0;collapsible=1;marginBottom=0;whiteSpace=wrap;html=1;" vertex="1" parent="1">
          <mxGeometry x="740" y="560" width="140" height="150" as="geometry" />
        </mxCell>
        <mxCell id="CEjSGQ_9NDGecTtwq8PR-108" value="id" style="text;strokeColor=none;fillColor=none;align=left;verticalAlign=middle;spacingLeft=4;spacingRight=4;overflow=hidden;points=[[0,0.5],[1,0.5]];portConstraint=eastwest;rotatable=0;whiteSpace=wrap;html=1;" vertex="1" parent="CEjSGQ_9NDGecTtwq8PR-107">
          <mxGeometry y="30" width="140" height="30" as="geometry" />
        </mxCell>
        <mxCell id="CEjSGQ_9NDGecTtwq8PR-109" value="users_id" style="text;strokeColor=none;fillColor=none;align=left;verticalAlign=middle;spacingLeft=4;spacingRight=4;overflow=hidden;points=[[0,0.5],[1,0.5]];portConstraint=eastwest;rotatable=0;whiteSpace=wrap;html=1;" vertex="1" parent="CEjSGQ_9NDGecTtwq8PR-107">
          <mxGeometry y="60" width="140" height="30" as="geometry" />
        </mxCell>
        <mxCell id="CEjSGQ_9NDGecTtwq8PR-110" value="tipo_ticket_id" style="text;strokeColor=none;fillColor=none;align=left;verticalAlign=middle;spacingLeft=4;spacingRight=4;overflow=hidden;points=[[0,0.5],[1,0.5]];portConstraint=eastwest;rotatable=0;whiteSpace=wrap;html=1;" vertex="1" parent="CEjSGQ_9NDGecTtwq8PR-107">
          <mxGeometry y="90" width="140" height="30" as="geometry" />
        </mxCell>
        <mxCell id="CEjSGQ_9NDGecTtwq8PR-165" value="status" style="text;strokeColor=none;fillColor=none;align=left;verticalAlign=middle;spacingLeft=4;spacingRight=4;overflow=hidden;points=[[0,0.5],[1,0.5]];portConstraint=eastwest;rotatable=0;whiteSpace=wrap;html=1;" vertex="1" parent="CEjSGQ_9NDGecTtwq8PR-107">
          <mxGeometry y="120" width="140" height="30" as="geometry" />
        </mxCell>
        <mxCell id="CEjSGQ_9NDGecTtwq8PR-121" value="" style="edgeStyle=orthogonalEdgeStyle;rounded=0;orthogonalLoop=1;jettySize=auto;html=1;" edge="1" parent="1" source="CEjSGQ_9NDGecTtwq8PR-111" target="CEjSGQ_9NDGecTtwq8PR-119">
          <mxGeometry relative="1" as="geometry" />
        </mxCell>
        <mxCell id="CEjSGQ_9NDGecTtwq8PR-111" value="CAMPOS_FORMULARIOS" style="swimlane;fontStyle=0;childLayout=stackLayout;horizontal=1;startSize=30;horizontalStack=0;resizeParent=1;resizeParentMax=0;resizeLast=0;collapsible=1;marginBottom=0;whiteSpace=wrap;html=1;" vertex="1" parent="1">
          <mxGeometry x="-245" y="480" width="160" height="150" as="geometry" />
        </mxCell>
        <mxCell id="CEjSGQ_9NDGecTtwq8PR-112" value="ID" style="text;strokeColor=none;fillColor=none;align=left;verticalAlign=middle;spacingLeft=4;spacingRight=4;overflow=hidden;points=[[0,0.5],[1,0.5]];portConstraint=eastwest;rotatable=0;whiteSpace=wrap;html=1;" vertex="1" parent="CEjSGQ_9NDGecTtwq8PR-111">
          <mxGeometry y="30" width="160" height="30" as="geometry" />
        </mxCell>
        <mxCell id="CEjSGQ_9NDGecTtwq8PR-113" value="NAME" style="text;strokeColor=none;fillColor=none;align=left;verticalAlign=middle;spacingLeft=4;spacingRight=4;overflow=hidden;points=[[0,0.5],[1,0.5]];portConstraint=eastwest;rotatable=0;whiteSpace=wrap;html=1;" vertex="1" parent="CEjSGQ_9NDGecTtwq8PR-111">
          <mxGeometry y="60" width="160" height="30" as="geometry" />
        </mxCell>
        <mxCell id="CEjSGQ_9NDGecTtwq8PR-114" value="tipo_componente" style="text;strokeColor=none;fillColor=none;align=left;verticalAlign=middle;spacingLeft=4;spacingRight=4;overflow=hidden;points=[[0,0.5],[1,0.5]];portConstraint=eastwest;rotatable=0;whiteSpace=wrap;html=1;" vertex="1" parent="CEjSGQ_9NDGecTtwq8PR-111">
          <mxGeometry y="90" width="160" height="30" as="geometry" />
        </mxCell>
        <mxCell id="CEjSGQ_9NDGecTtwq8PR-116" value="html_nombre componente&lt;br&gt;" style="text;strokeColor=none;fillColor=none;align=left;verticalAlign=middle;spacingLeft=4;spacingRight=4;overflow=hidden;points=[[0,0.5],[1,0.5]];portConstraint=eastwest;rotatable=0;whiteSpace=wrap;html=1;" vertex="1" parent="CEjSGQ_9NDGecTtwq8PR-111">
          <mxGeometry y="120" width="160" height="30" as="geometry" />
        </mxCell>
        <mxCell id="CEjSGQ_9NDGecTtwq8PR-118" value="" style="edgeStyle=orthogonalEdgeStyle;rounded=0;orthogonalLoop=1;jettySize=auto;html=1;" edge="1" parent="1" source="CEjSGQ_9NDGecTtwq8PR-117" target="CEjSGQ_9NDGecTtwq8PR-102">
          <mxGeometry relative="1" as="geometry" />
        </mxCell>
        <mxCell id="CEjSGQ_9NDGecTtwq8PR-117" value="es la union de tipo_ticket con campo_formularios, esto es para crear campos dinamicos o formularios dinamicos" style="shape=note;whiteSpace=wrap;html=1;backgroundOutline=1;darkOpacity=0.05;" vertex="1" parent="1">
          <mxGeometry x="-220" y="70" width="110" height="100" as="geometry" />
        </mxCell>
        <mxCell id="CEjSGQ_9NDGecTtwq8PR-125" value="" style="endArrow=classic;startArrow=classic;html=1;rounded=0;entryX=1;entryY=0.5;entryDx=0;entryDy=0;exitX=0;exitY=0.5;exitDx=0;exitDy=0;" edge="1" parent="1" source="CEjSGQ_9NDGecTtwq8PR-124" target="CEjSGQ_9NDGecTtwq8PR-103">
          <mxGeometry width="50" height="50" relative="1" as="geometry">
            <mxPoint x="350" y="350" as="sourcePoint" />
            <mxPoint x="400" y="300" as="targetPoint" />
          </mxGeometry>
        </mxCell>
        <mxCell id="CEjSGQ_9NDGecTtwq8PR-150" value="" style="edgeStyle=orthogonalEdgeStyle;rounded=0;orthogonalLoop=1;jettySize=auto;html=1;" edge="1" parent="1" source="CEjSGQ_9NDGecTtwq8PR-128" target="CEjSGQ_9NDGecTtwq8PR-94">
          <mxGeometry relative="1" as="geometry" />
        </mxCell>
        <mxCell id="CEjSGQ_9NDGecTtwq8PR-128" value="en campos : todos los campos dinamicos,&amp;nbsp;&lt;br&gt;&lt;br&gt;objeto: de de donde viene,&lt;br&gt;&lt;br&gt;users_id : el usuario que realiza la solicitud.&lt;br&gt;&lt;br&gt;" style="shape=note;whiteSpace=wrap;html=1;backgroundOutline=1;darkOpacity=0.05;" vertex="1" parent="1">
          <mxGeometry x="-62" y="-760" width="212" height="120" as="geometry" />
        </mxCell>
        <mxCell id="CEjSGQ_9NDGecTtwq8PR-134" value="STATUS_TICKET" style="swimlane;fontStyle=0;childLayout=stackLayout;horizontal=1;startSize=30;horizontalStack=0;resizeParent=1;resizeParentMax=0;resizeLast=0;collapsible=1;marginBottom=0;whiteSpace=wrap;html=1;" vertex="1" parent="1">
          <mxGeometry x="390" y="-550" width="200" height="150" as="geometry" />
        </mxCell>
        <mxCell id="CEjSGQ_9NDGecTtwq8PR-135" value="ticket_uid" style="text;strokeColor=none;fillColor=none;align=left;verticalAlign=middle;spacingLeft=4;spacingRight=4;overflow=hidden;points=[[0,0.5],[1,0.5]];portConstraint=eastwest;rotatable=0;whiteSpace=wrap;html=1;" vertex="1" parent="CEjSGQ_9NDGecTtwq8PR-134">
          <mxGeometry y="30" width="200" height="30" as="geometry" />
        </mxCell>
        <mxCell id="CEjSGQ_9NDGecTtwq8PR-136" value="status_name" style="text;strokeColor=none;fillColor=none;align=left;verticalAlign=middle;spacingLeft=4;spacingRight=4;overflow=hidden;points=[[0,0.5],[1,0.5]];portConstraint=eastwest;rotatable=0;whiteSpace=wrap;html=1;" vertex="1" parent="CEjSGQ_9NDGecTtwq8PR-134">
          <mxGeometry y="60" width="200" height="30" as="geometry" />
        </mxCell>
        <mxCell id="CEjSGQ_9NDGecTtwq8PR-137" value="fecha&amp;nbsp;" style="text;strokeColor=none;fillColor=none;align=left;verticalAlign=middle;spacingLeft=4;spacingRight=4;overflow=hidden;points=[[0,0.5],[1,0.5]];portConstraint=eastwest;rotatable=0;whiteSpace=wrap;html=1;" vertex="1" parent="CEjSGQ_9NDGecTtwq8PR-134">
          <mxGeometry y="90" width="200" height="30" as="geometry" />
        </mxCell>
        <mxCell id="CEjSGQ_9NDGecTtwq8PR-138" value="users_id" style="text;strokeColor=none;fillColor=none;align=left;verticalAlign=middle;spacingLeft=4;spacingRight=4;overflow=hidden;points=[[0,0.5],[1,0.5]];portConstraint=eastwest;rotatable=0;whiteSpace=wrap;html=1;" vertex="1" parent="CEjSGQ_9NDGecTtwq8PR-134">
          <mxGeometry y="120" width="200" height="30" as="geometry" />
        </mxCell>
        <mxCell id="CEjSGQ_9NDGecTtwq8PR-139" value="historial de asigna" style="swimlane;fontStyle=0;childLayout=stackLayout;horizontal=1;startSize=30;horizontalStack=0;resizeParent=1;resizeParentMax=0;resizeLast=0;collapsible=1;marginBottom=0;whiteSpace=wrap;html=1;" vertex="1" parent="1">
          <mxGeometry x="450" y="-775" width="140" height="150" as="geometry" />
        </mxCell>
        <mxCell id="CEjSGQ_9NDGecTtwq8PR-140" value="ticket_uid" style="text;strokeColor=none;fillColor=none;align=left;verticalAlign=middle;spacingLeft=4;spacingRight=4;overflow=hidden;points=[[0,0.5],[1,0.5]];portConstraint=eastwest;rotatable=0;whiteSpace=wrap;html=1;" vertex="1" parent="CEjSGQ_9NDGecTtwq8PR-139">
          <mxGeometry y="30" width="140" height="30" as="geometry" />
        </mxCell>
        <mxCell id="CEjSGQ_9NDGecTtwq8PR-141" value="users_id (quien realiza la asignacion )" style="text;strokeColor=none;fillColor=none;align=left;verticalAlign=middle;spacingLeft=4;spacingRight=4;overflow=hidden;points=[[0,0.5],[1,0.5]];portConstraint=eastwest;rotatable=0;whiteSpace=wrap;html=1;" vertex="1" parent="CEjSGQ_9NDGecTtwq8PR-139">
          <mxGeometry y="60" width="140" height="30" as="geometry" />
        </mxCell>
        <mxCell id="CEjSGQ_9NDGecTtwq8PR-142" value="fecha" style="text;strokeColor=none;fillColor=none;align=left;verticalAlign=middle;spacingLeft=4;spacingRight=4;overflow=hidden;points=[[0,0.5],[1,0.5]];portConstraint=eastwest;rotatable=0;whiteSpace=wrap;html=1;" vertex="1" parent="CEjSGQ_9NDGecTtwq8PR-139">
          <mxGeometry y="90" width="140" height="30" as="geometry" />
        </mxCell>
        <mxCell id="CEjSGQ_9NDGecTtwq8PR-143" value="users_id (a quien se asigna )" style="text;strokeColor=none;fillColor=none;align=left;verticalAlign=middle;spacingLeft=4;spacingRight=4;overflow=hidden;points=[[0,0.5],[1,0.5]];portConstraint=eastwest;rotatable=0;whiteSpace=wrap;html=1;" vertex="1" parent="CEjSGQ_9NDGecTtwq8PR-139">
          <mxGeometry y="120" width="140" height="30" as="geometry" />
        </mxCell>
        <mxCell id="CEjSGQ_9NDGecTtwq8PR-149" value="" style="edgeStyle=orthogonalEdgeStyle;rounded=0;orthogonalLoop=1;jettySize=auto;html=1;" edge="1" parent="1" source="CEjSGQ_9NDGecTtwq8PR-144" target="CEjSGQ_9NDGecTtwq8PR-140">
          <mxGeometry relative="1" as="geometry" />
        </mxCell>
        <mxCell id="CEjSGQ_9NDGecTtwq8PR-144" value="el historial de asignacion de ticket, puede ser en el caso de cuando es cogido por un usuario o es asignado a otra persona&amp;nbsp;" style="shape=note;whiteSpace=wrap;html=1;backgroundOutline=1;darkOpacity=0.05;" vertex="1" parent="1">
          <mxGeometry x="800" y="-790" width="150" height="120" as="geometry" />
        </mxCell>
        <mxCell id="CEjSGQ_9NDGecTtwq8PR-152" value="" style="edgeStyle=entityRelationEdgeStyle;fontSize=12;html=1;endArrow=ERoneToMany;rounded=0;" edge="1" parent="1" target="CEjSGQ_9NDGecTtwq8PR-135">
          <mxGeometry width="100" height="100" relative="1" as="geometry">
            <mxPoint x="190" y="-460" as="sourcePoint" />
            <mxPoint x="290" y="-560" as="targetPoint" />
          </mxGeometry>
        </mxCell>
        <mxCell id="CEjSGQ_9NDGecTtwq8PR-153" value="" style="edgeStyle=entityRelationEdgeStyle;fontSize=12;html=1;endArrow=ERoneToMany;rounded=0;" edge="1" parent="1" source="CEjSGQ_9NDGecTtwq8PR-93" target="CEjSGQ_9NDGecTtwq8PR-140">
          <mxGeometry width="100" height="100" relative="1" as="geometry">
            <mxPoint x="190" y="-510" as="sourcePoint" />
            <mxPoint x="290" y="-610" as="targetPoint" />
          </mxGeometry>
        </mxCell>
        <mxCell id="CEjSGQ_9NDGecTtwq8PR-154" value="intera_ticket" style="swimlane;fontStyle=0;childLayout=stackLayout;horizontal=1;startSize=26;horizontalStack=0;resizeParent=1;resizeParentMax=0;resizeLast=0;collapsible=1;marginBottom=0;align=center;fontSize=14;" vertex="1" parent="1">
          <mxGeometry x="340" y="-1130" width="160" height="260" as="geometry" />
        </mxCell>
        <mxCell id="CEjSGQ_9NDGecTtwq8PR-155" value="ticket_uid" style="text;strokeColor=none;fillColor=none;spacingLeft=4;spacingRight=4;overflow=hidden;rotatable=0;points=[[0,0.5],[1,0.5]];portConstraint=eastwest;fontSize=12;whiteSpace=wrap;html=1;" vertex="1" parent="CEjSGQ_9NDGecTtwq8PR-154">
          <mxGeometry y="26" width="160" height="30" as="geometry" />
        </mxCell>
        <mxCell id="CEjSGQ_9NDGecTtwq8PR-156" value="&amp;nbsp;type (salidas, entradas )" style="text;strokeColor=none;fillColor=none;spacingLeft=4;spacingRight=4;overflow=hidden;rotatable=0;points=[[0,0.5],[1,0.5]];portConstraint=eastwest;fontSize=12;whiteSpace=wrap;html=1;" vertex="1" parent="CEjSGQ_9NDGecTtwq8PR-154">
          <mxGeometry y="56" width="160" height="30" as="geometry" />
        </mxCell>
        <mxCell id="CEjSGQ_9NDGecTtwq8PR-157" value="mensaje" style="text;strokeColor=none;fillColor=none;spacingLeft=4;spacingRight=4;overflow=hidden;rotatable=0;points=[[0,0.5],[1,0.5]];portConstraint=eastwest;fontSize=12;whiteSpace=wrap;html=1;" vertex="1" parent="CEjSGQ_9NDGecTtwq8PR-154">
          <mxGeometry y="86" width="160" height="30" as="geometry" />
        </mxCell>
        <mxCell id="CEjSGQ_9NDGecTtwq8PR-158" value="url S3" style="text;strokeColor=none;fillColor=none;spacingLeft=4;spacingRight=4;overflow=hidden;rotatable=0;points=[[0,0.5],[1,0.5]];portConstraint=eastwest;fontSize=12;whiteSpace=wrap;html=1;" vertex="1" parent="CEjSGQ_9NDGecTtwq8PR-154">
          <mxGeometry y="116" width="160" height="30" as="geometry" />
        </mxCell>
        <mxCell id="CEjSGQ_9NDGecTtwq8PR-160" value="users_id&amp;nbsp;" style="text;strokeColor=none;fillColor=none;spacingLeft=4;spacingRight=4;overflow=hidden;rotatable=0;points=[[0,0.5],[1,0.5]];portConstraint=eastwest;fontSize=12;whiteSpace=wrap;html=1;" vertex="1" parent="CEjSGQ_9NDGecTtwq8PR-154">
          <mxGeometry y="146" width="160" height="30" as="geometry" />
        </mxCell>
        <mxCell id="CEjSGQ_9NDGecTtwq8PR-161" value="fecha" style="text;strokeColor=none;fillColor=none;spacingLeft=4;spacingRight=4;overflow=hidden;rotatable=0;points=[[0,0.5],[1,0.5]];portConstraint=eastwest;fontSize=12;whiteSpace=wrap;html=1;" vertex="1" parent="CEjSGQ_9NDGecTtwq8PR-154">
          <mxGeometry y="176" width="160" height="30" as="geometry" />
        </mxCell>
        <mxCell id="CEjSGQ_9NDGecTtwq8PR-163" value="tiempo_espera (dejar guardado para reportes mas faciles)" style="text;strokeColor=none;fillColor=none;spacingLeft=4;spacingRight=4;overflow=hidden;rotatable=0;points=[[0,0.5],[1,0.5]];portConstraint=eastwest;fontSize=12;whiteSpace=wrap;html=1;" vertex="1" parent="CEjSGQ_9NDGecTtwq8PR-154">
          <mxGeometry y="206" width="160" height="54" as="geometry" />
        </mxCell>
        <mxCell id="CEjSGQ_9NDGecTtwq8PR-164" value="" style="edgeStyle=entityRelationEdgeStyle;fontSize=12;html=1;endArrow=ERoneToMany;rounded=0;" edge="1" parent="1" source="CEjSGQ_9NDGecTtwq8PR-93" target="CEjSGQ_9NDGecTtwq8PR-155">
          <mxGeometry width="100" height="100" relative="1" as="geometry">
            <mxPoint x="190" y="-510" as="sourcePoint" />
            <mxPoint x="290" y="-610" as="targetPoint" />
          </mxGeometry>
        </mxCell>
      </root>
    </mxGraphModel>
  </diagram>
</mxfile>
